<svg version="1.1" id="Layer_1" xmlns="http://www.w3.org/2000/svg" xmlns:xlink="http://www.w3.org/1999/xlink" x="0px" y="0px"
	 width="100%" viewBox="0 0 512 512" enable-background="new 0 0 512 512" xml:space="preserve">
<path fill="#ED5564" opacity="1.000000" stroke="none" 
	d="
M252.000000,1.000000 
	C253.066788,1.000000 254.133575,1.000000 255.889648,1.271367 
	C265.588257,2.819295 274.675262,3.698502 283.593262,5.442116 
	C319.641357,12.490088 352.798492,26.450493 382.947540,47.532345 
	C401.467651,60.482639 417.867554,75.754288 432.287933,93.050896 
	C447.464325,111.254356 459.986481,131.196808 469.557648,152.974792 
	C478.295471,172.856506 484.710785,193.375412 488.074310,214.848602 
	C488.934052,220.337112 490.172882,225.766266 491.140747,231.430939 
	C491.043945,231.639191 490.888153,232.074188 490.467133,232.027710 
	C470.369598,234.098633 450.721527,236.544235 431.009491,238.251602 
	C405.483673,240.462555 379.904419,242.052597 354.355103,244.000916 
	C351.139160,244.246170 349.758728,243.182266 348.814209,239.985504 
	C343.688782,222.638199 334.136536,208.076492 320.692871,195.946777 
	C279.825897,159.074005 214.496414,165.166016 181.031006,208.995255 
	C173.042313,219.457947 167.468857,231.076126 163.843582,244.060150 
	C116.920815,241.658066 70.348602,238.146240 24.026371,231.205353 
	C24.332567,227.483047 24.535942,224.175827 24.976261,220.900436 
	C28.570122,194.166870 36.516499,168.731277 48.274776,144.507172 
	C62.451637,115.300369 81.713181,89.765808 105.724319,68.006042 
	C115.401558,59.236187 125.875603,51.203056 136.677429,43.848701 
	C154.738327,31.552044 174.132141,21.470388 195.094910,15.138841 
	C209.969193,10.646244 225.297775,7.659806 240.417496,3.976143 
	C244.290146,3.032633 248.139786,1.994601 252.000000,1.000000 
z"/>
<path fill="#E6E9ED" opacity="1.000000" stroke="none" 
	d="
M267.000000,513.000000 
	C261.977905,513.000000 256.955811,513.000000 251.378082,512.617676 
	C247.524261,511.508484 244.258423,510.540955 240.922791,510.092987 
	C215.700485,506.705475 191.686050,499.255157 168.775467,488.333405 
	C133.909760,471.712555 104.286339,448.420319 79.788460,418.447876 
	C57.030464,390.604065 40.815567,359.442932 31.600388,324.796906 
	C28.170408,311.901306 26.627581,298.503784 24.668922,285.337402 
	C69.861229,289.268707 114.601768,293.282806 159.367157,296.997375 
	C163.926239,297.375671 166.212006,298.594116 167.950851,303.048279 
	C182.651779,340.705902 221.121674,366.119598 260.338898,363.548462 
	C302.032257,360.814972 330.924622,339.649292 346.922607,301.042511 
	C347.940033,298.587219 349.018646,297.387756 351.830414,297.187836 
	C384.366730,294.874725 416.909088,292.614777 449.414612,289.916168 
	C462.988831,288.789215 476.479126,286.651398 489.947388,285.097748 
	C489.887207,285.222321 489.964478,285.487976 490.003052,285.624207 
	C490.041656,285.760406 490.094238,286.038605 490.048981,286.446869 
	C488.901154,293.708679 488.067749,300.618408 486.650177,307.406158 
	C479.926270,339.602448 467.820618,369.602509 449.576324,397.049225 
	C445.379395,403.363037 441.191071,409.682556 436.999390,415.999725 
	C437.000000,416.000000 436.999512,415.999573 436.703125,416.150696 
	C434.937408,418.201172 433.468109,420.100555 431.999390,421.999969 
	C432.000000,422.000000 431.999969,421.999664 431.703339,422.150787 
	C429.604065,424.534393 427.801422,426.766876 425.736145,429.124939 
	C424.982330,429.833282 424.491150,430.416016 423.703796,431.149902 
	C419.271301,435.533997 415.135010,439.766968 410.713928,444.142487 
	C409.285736,445.522949 408.142395,446.760864 406.658691,448.038818 
	C404.212128,450.052490 402.105865,452.026123 399.999817,453.999878 
	C400.000000,454.000000 399.999664,453.998779 399.666199,454.036499 
	C397.888367,455.382843 396.444061,456.691406 394.999878,458.000000 
	C395.000000,458.000000 395.000000,457.998779 394.666504,458.036560 
	C392.888519,459.382507 391.444000,460.690735 389.999756,461.999451 
	C390.000000,462.000000 389.999023,461.998779 389.650726,462.041382 
	C372.988098,473.230316 356.425659,483.912140 338.053558,491.510406 
	C318.994629,499.392700 299.564056,505.876831 279.114929,509.135712 
	C274.976440,509.795258 271.033234,511.680054 267.000000,513.000000 
z"/>
<path fill="#D0CFD3" opacity="1.000000" stroke="none" 
	d="
M225.468658,513.000000 
	C224.372635,512.326660 223.802032,511.130768 223.109711,511.055573 
	C198.027664,508.331726 174.299744,500.955627 151.331970,490.718872 
	C129.199890,480.854584 109.117859,467.888336 90.704529,452.178223 
	C72.668701,436.790222 56.743629,419.442291 43.629395,399.777588 
	C26.301083,373.793884 13.947238,345.467102 7.125539,314.892242 
	C5.426101,307.275360 4.413490,299.506378 3.002841,291.822388 
	C2.841748,290.944916 2.146654,290.165466 1.349581,289.670288 
	C1.000000,287.629425 1.000000,285.258881 1.277196,282.806488 
	C2.675688,282.703644 3.810360,282.560486 4.916075,282.681641 
	C11.289718,283.379852 17.656507,284.140625 24.084524,284.989868 
	C24.143429,285.099579 24.224209,285.335144 24.224209,285.335144 
	C26.627581,298.503784 28.170408,311.901306 31.600388,324.796906 
	C40.815567,359.442932 57.030464,390.604065 79.788460,418.447876 
	C104.286339,448.420319 133.909760,471.712555 168.775467,488.333405 
	C191.686050,499.255157 215.700485,506.705475 240.922791,510.092987 
	C244.258423,510.540955 247.524261,511.508484 250.911224,512.617676 
	C242.645767,513.000000 234.291534,513.000000 225.468658,513.000000 
z"/>
<path fill="#D64D5A" opacity="1.000000" stroke="none" 
	d="
M1.000005,224.416672 
	C1.664707,223.194794 2.812764,222.450607 2.923266,221.575424 
	C5.546556,200.798599 11.234509,180.867920 18.851637,161.397232 
	C25.296083,144.924103 33.459202,129.325073 43.229465,114.689529 
	C56.434971,94.908089 72.399185,77.463600 90.477798,61.913387 
	C107.403893,47.354511 125.852768,35.202705 145.945221,25.582598 
	C165.978073,15.991018 186.915985,9.025637 208.793854,4.978738 
	C213.992691,4.017070 219.157608,2.871900 224.169067,1.405568 
	C233.020889,1.000000 242.041794,1.000000 251.531342,1.000000 
	C248.139786,1.994601 244.290146,3.032633 240.417496,3.976143 
	C225.297775,7.659806 209.969193,10.646244 195.094910,15.138841 
	C174.132141,21.470388 154.738327,31.552044 136.677429,43.848701 
	C125.875603,51.203056 115.401558,59.236187 105.724319,68.006042 
	C81.713181,89.765808 62.451637,115.300369 48.274776,144.507172 
	C36.516499,168.731277 28.570122,194.166870 24.976261,220.900436 
	C24.535942,224.175827 24.332567,227.483047 23.772282,231.294693 
	C23.351822,231.860153 23.178471,231.906448 22.641819,231.784424 
	C15.185678,230.744095 8.092839,229.872055 1.000000,229.000000 
	C1.000000,227.611115 1.000000,226.222214 1.000005,224.416672 
z"/>
<path fill="#F17783" opacity="1.000000" stroke="none" 
	d="
M288.531342,1.000003 
	C289.535736,1.659558 290.023376,2.848615 290.614136,2.902273 
	C313.486725,4.979707 335.213806,11.614598 356.289886,20.228823 
	C376.215851,28.372961 395.072968,38.835526 411.736664,52.507599 
	C424.737946,63.174793 437.298340,74.552734 448.875061,86.735718 
	C461.326233,99.838852 471.370819,114.939903 480.389954,130.708725 
	C493.067108,152.873093 501.759064,176.514618 507.585968,201.254868 
	C509.223572,208.208038 509.860565,215.394791 511.035065,222.461380 
	C511.209717,223.512238 511.818848,224.490891 512.613525,225.251480 
	C513.000000,226.066666 513.000000,227.133347 512.606079,228.356171 
	C505.220581,229.415787 498.229034,230.319229 491.237518,231.222687 
	C490.172882,225.766266 488.934052,220.337112 488.074310,214.848602 
	C484.710785,193.375412 478.295471,172.856506 469.557648,152.974792 
	C459.986481,131.196808 447.464325,111.254356 432.287933,93.050896 
	C417.867554,75.754288 401.467651,60.482639 382.947540,47.532345 
	C352.798492,26.450493 319.641357,12.490088 283.593262,5.442116 
	C274.675262,3.698502 265.588257,2.819295 256.289459,1.271367 
	C266.687561,1.000000 277.375122,1.000000 288.531342,1.000003 
z"/>
<path fill="#EBECF0" opacity="1.000000" stroke="none" 
	d="
M513.000000,288.562500 
	C512.318420,289.780090 511.125793,290.501953 511.029327,291.348724 
	C507.965332,318.239471 500.434631,343.957733 488.128143,367.894470 
	C477.912415,387.764557 465.927490,406.700256 451.004822,423.661346 
	C431.709808,445.592072 409.990448,464.447968 384.660614,479.068787 
	C383.688690,479.629791 382.728119,480.210449 381.181763,480.991760 
	C380.406403,481.484283 380.211456,481.766937 380.016510,482.049561 
	C380.016510,482.049561 379.998474,482.000793 379.785706,482.055481 
	C379.266876,482.250275 379.039612,482.471436 378.891144,482.773621 
	C374.869995,484.818176 370.848846,486.862762 366.162720,488.953064 
	C364.982239,489.267578 364.466766,489.536377 363.951263,489.805176 
	C347.377960,497.543518 330.191620,503.510651 312.286987,507.265503 
	C305.038910,508.785492 297.673859,509.743011 290.376099,511.035828 
	C289.332855,511.220642 288.369202,511.854889 287.684357,512.640564 
	C287.250000,513.000000 286.500000,513.000000 285.389465,512.616577 
	C286.512756,511.186218 287.869568,509.516174 289.499115,509.183929 
	C324.221619,502.104675 355.718994,487.691742 384.682648,467.516052 
	C386.738342,466.084045 388.239838,463.856445 389.999023,461.998779 
	C389.999023,461.998779 390.000000,462.000000 390.363953,461.993683 
	C392.151917,460.657867 393.575989,459.328339 395.000000,457.998779 
	C395.000000,457.998779 395.000000,458.000000 395.364044,457.993835 
	C397.151947,456.658081 398.575806,455.328430 399.999695,453.998779 
	C399.999664,453.998779 400.000000,454.000000 400.364685,453.993835 
	C402.819244,451.991364 404.909149,449.995056 406.999023,447.998779 
	C408.142395,446.760864 409.285736,445.522949 411.078491,444.136414 
	C417.270264,441.029694 422.009369,437.312622 424.000000,430.998779 
	C424.491150,430.416016 424.982330,429.833282 426.083160,429.083618 
	C428.461853,426.610992 430.230927,424.305328 431.999969,421.999664 
	C431.999969,421.999664 432.000000,422.000000 432.348877,421.957458 
	C434.131683,419.943115 435.565582,417.971344 436.999512,415.999573 
	C436.999512,415.999573 437.000000,416.000000 437.345551,415.957825 
	C438.610443,415.245697 439.824402,414.767578 440.404633,413.876709 
	C448.091400,402.074371 456.338745,390.575500 463.173431,378.292694 
	C477.258850,352.979401 485.794464,325.593414 490.573486,297.098450 
	C491.140289,293.718903 494.230225,289.492188 490.094238,286.038605 
	C490.094238,286.038605 490.041656,285.760406 490.415619,285.469055 
	C498.193054,284.118500 505.596527,283.059265 513.000000,282.000000 
	C513.000000,284.041656 513.000000,286.083344 513.000000,288.562500 
z"/>
<path fill="#6A6E76" opacity="1.000000" stroke="none" 
	d="
M513.000000,281.531342 
	C505.596527,283.059265 498.193054,284.118500 490.377014,285.332855 
	C489.964478,285.487976 489.887207,285.222321 489.967773,284.678467 
	C490.685822,276.224060 491.753448,268.318787 491.849548,260.401703 
	C491.964081,250.964478 491.245697,241.517136 490.888153,232.074188 
	C490.888153,232.074188 491.043945,231.639191 491.140747,231.430939 
	C498.229034,230.319229 505.220581,229.415787 512.606079,228.756165 
	C513.000000,246.354233 513.000000,263.708466 513.000000,281.531342 
z"/>
<path fill="#3D444D" opacity="1.000000" stroke="none" 
	d="
M1.000000,229.468658 
	C8.092839,229.872055 15.185678,230.744095 22.640701,232.256165 
	C22.321497,250.244308 21.406898,267.597015 24.025618,284.880188 
	C17.656507,284.140625 11.289718,283.379852 4.916075,282.681641 
	C3.810360,282.560486 2.675688,282.703644 1.277196,282.362335 
	C1.000000,264.645782 1.000000,247.291550 1.000000,229.468658 
z"/>
<path fill="#EAECF0" opacity="1.000000" stroke="none" 
	d="
M389.650726,462.041382 
	C388.239838,463.856445 386.738342,466.084045 384.682648,467.516052 
	C355.718994,487.691742 324.221619,502.104675 289.499115,509.183929 
	C287.869568,509.516174 286.512756,511.186218 285.014465,512.616577 
	C279.311951,513.000000 273.623932,513.000000 267.467957,513.000000 
	C271.033234,511.680054 274.976440,509.795258 279.114929,509.135712 
	C299.564056,505.876831 318.994629,499.392700 338.053558,491.510406 
	C356.425659,483.912140 372.988098,473.230316 389.650726,462.041382 
z"/>
<path fill="#444A54" opacity="1.000000" stroke="none" 
	d="
M24.084522,284.989899 
	C21.406898,267.597015 22.321497,250.244308 23.004002,232.424454 
	C23.178471,231.906448 23.351822,231.860153 23.779264,231.724518 
	C70.348602,238.146240 116.920815,241.658066 163.843582,244.060150 
	C167.468857,231.076126 173.042313,219.457947 181.031006,208.995255 
	C214.496414,165.166016 279.825897,159.074005 320.692871,195.946777 
	C334.136536,208.076492 343.688782,222.638199 348.814209,239.985504 
	C349.758728,243.182266 351.139160,244.246170 354.355103,244.000916 
	C379.904419,242.052597 405.483673,240.462555 431.009491,238.251602 
	C450.721527,236.544235 470.369598,234.098633 490.467133,232.027710 
	C491.245697,241.517136 491.964081,250.964478 491.849548,260.401703 
	C491.753448,268.318787 490.685822,276.224060 490.027954,284.553894 
	C476.479126,286.651398 462.988831,288.789215 449.414612,289.916168 
	C416.909088,292.614777 384.366730,294.874725 351.830414,297.187836 
	C349.018646,297.387756 347.940033,298.587219 346.922607,301.042511 
	C330.924622,339.649292 302.032257,360.814972 260.338898,363.548462 
	C221.121674,366.119598 182.651779,340.705902 167.950851,303.048279 
	C166.212006,298.594116 163.926239,297.375671 159.367157,296.997375 
	C114.601768,293.282806 69.861229,289.268707 24.668922,285.337402 
	C24.224209,285.335144 24.143429,285.099579 24.084522,284.989899 
M238.771942,229.131790 
	C220.823563,238.430405 212.081223,255.267273 214.999359,274.915283 
	C218.304749,297.170654 240.154968,313.014496 263.230316,309.888062 
	C285.148743,306.918396 301.929962,285.640930 299.431396,263.987488 
	C295.974823,234.031036 267.599396,217.398636 238.771942,229.131790 
z"/>
<path fill="#EAECF0" opacity="1.000000" stroke="none" 
	d="
M490.048981,286.446869 
	C494.230225,289.492188 491.140289,293.718903 490.573486,297.098450 
	C485.794464,325.593414 477.258850,352.979401 463.173431,378.292694 
	C456.338745,390.575500 448.091400,402.074371 440.404633,413.876709 
	C439.824402,414.767578 438.610443,415.245697 437.344940,415.957581 
	C441.191071,409.682556 445.379395,403.363037 449.576324,397.049225 
	C467.820618,369.602509 479.926270,339.602448 486.650177,307.406158 
	C488.067749,300.618408 488.901154,293.708679 490.048981,286.446869 
z"/>
<path fill="#EAECF0" opacity="1.000000" stroke="none" 
	d="
M423.703796,431.149902 
	C422.009369,437.312622 417.270264,441.029694 411.363342,443.993896 
	C415.135010,439.766968 419.271301,435.533997 423.703796,431.149902 
z"/>
<path fill="#EAECF0" opacity="1.000000" stroke="none" 
	d="
M431.703339,422.150787 
	C430.230927,424.305328 428.461853,426.610992 426.345795,428.958008 
	C427.801422,426.766876 429.604065,424.534393 431.703339,422.150787 
z"/>
<path fill="#EAECF0" opacity="1.000000" stroke="none" 
	d="
M406.658691,448.038818 
	C404.909149,449.995056 402.819244,451.991364 400.364502,453.993683 
	C402.105865,452.026123 404.212128,450.052490 406.658691,448.038818 
z"/>
<path fill="#EAECF0" opacity="1.000000" stroke="none" 
	d="
M436.703125,416.150696 
	C435.565582,417.971344 434.131683,419.943115 432.348267,421.957397 
	C433.468109,420.100555 434.937408,418.201172 436.703125,416.150696 
z"/>
<path fill="#EAECF0" opacity="1.000000" stroke="none" 
	d="
M399.666199,454.036530 
	C398.575806,455.328430 397.151947,456.658081 395.363892,457.993835 
	C396.444061,456.691406 397.888367,455.382843 399.666199,454.036530 
z"/>
<path fill="#EAECF0" opacity="1.000000" stroke="none" 
	d="
M394.666534,458.036560 
	C393.575989,459.328339 392.151917,460.657867 390.363708,461.993164 
	C391.444000,460.690735 392.888519,459.382507 394.666534,458.036560 
z"/>
<path fill="#ECC4CB" opacity="1.000000" stroke="none" 
	d="
M364.277466,489.883698 
	C364.466766,489.536377 364.982239,489.267578 365.799957,488.997559 
	C365.602722,489.318268 365.103210,489.640259 364.277466,489.883698 
z"/>
<path fill="#ECC4CB" opacity="1.000000" stroke="none" 
	d="
M380.274567,481.984100 
	C380.211456,481.766937 380.406403,481.484283 380.854675,481.127258 
	C380.916229,481.341461 380.724426,481.630035 380.274567,481.984100 
z"/>
<path fill="#ECC4CB" opacity="1.000000" stroke="none" 
	d="
M379.168457,482.850525 
	C379.039612,482.471436 379.266876,482.250275 379.809814,482.065186 
	C379.846375,482.322662 379.646088,482.625061 379.168457,482.850525 
z"/>
<path fill="#E5E8EC" opacity="1.000000" stroke="none" 
	d="
M239.125977,228.989197 
	C267.599396,217.398636 295.974823,234.031036 299.431396,263.987488 
	C301.929962,285.640930 285.148743,306.918396 263.230316,309.888062 
	C240.154968,313.014496 218.304749,297.170654 214.999359,274.915283 
	C212.081223,255.267273 220.823563,238.430405 239.125977,228.989197 
z"/>
</svg>